# xmcd CD database file
#
# Track frame offsets:
#	150
#	17171
#	34280
#	56324
#	81599
#	101040
#	121994
#	140652
#
# Disc length: 2167 seconds
#
# Revision: 1
# Processed by: cddbd v1.5.2PL0 Copyright (c) Steve Scherf et al.
# Submitted via: CDex 1.51
#
DISCID=6d087508
DTITLE=The Real Abba Gold - The real Abba gold - cd1
DYEAR=2011
DGENRE=Pop
TTITLE0=Waterloo
TTITLE1=Dancing QUeen
TTITLE2=Winner takes it all
TTITLE3=Chiquitia
TTITLE4=Super trouper
TTITLE5=Lay all your love
TTITLE6=Take a chance on me
TTITLE7=Gimme, gimme, gimme\n
EXTD=YEAR: 2011
EXTT0=
EXTT1=
EXTT2=
EXTT3=
EXTT4=
EXTT5=
EXTT6=
EXTT7=
PLAYORDER=
